<svg version="1" xmlns="http://www.w3.org/2000/svg" width="434.667" height="434.667" viewBox="0 0 326.000000 326.000000"><path d="M45 36.6C22.2 41.3 6.4 59 1.4 85.5c-1.7 9.4-1.2 30.9 1.1 40 6 24.4 23.2 41.4 45.6 45.1 7.3 1.2 21.2.7 27.7-1 30.3-7.7 47.2-38.1 43-77.6-1.9-18.1-7.2-30.3-17.8-41.1-13.4-13.5-34-18.8-56-14.3zm30.7 34.9c4.2 2.8 7 8.5 8.8 18 .5 2.9.6 22 .1 26-1.2 8.8-5.3 17.3-9.6 19.8-1.5.9-4.5 1.7-6.7 1.7-11.4 0-17.4-12.8-16.8-36.3C52 81.4 55.6 73 65 69.6c2.4-.8 8 .2 10.7 1.9zM234.5 37c-2.2 1-5 2.8-6.3 3.9-1.8 1.5-22.7 31-49.2 69.1-14.5 21-55.3 78.7-62.4 88.5-10.5 14.3-45 63.5-46.1 65.6-1.9 3.5-2.5 10.3-1.4 14.3 2.7 9.5 18.1 15.5 28.7 11.1 6.7-2.9 2.9 2.1 57.7-76 16.9-24.2 35.6-50.8 41.5-59 38.1-53.6 63.9-90.4 65.3-93 3.7-7.3 2.6-14.9-3.2-20.6-5.9-6-16.8-7.7-24.6-3.9zM254.5 155.1c-14.4 2.5-23.8 7.2-32.7 16.5-10.5 11-15.7 25.5-16.5 46.4-1.3 31.5 8.8 54.2 29.2 65.5 8.2 4.6 15.3 6.5 26.5 7.1 25.8 1.6 46.5-10.6 56.5-33.1 9.6-21.9 8.8-53.9-2.1-74.5-9.2-17.5-26.3-27.6-48.1-28.3-4.8-.2-10.6 0-12.8.4zm8.5 35.6c6.3 3.7 9.9 14.9 9.8 31.3 0 13.1-1.2 20.1-4.6 26.5-5.9 10.9-19.5 10.8-24.7-.2-4.2-8.7-5.7-28.1-3.3-41.3 1.2-6.8 5-14.1 8.6-16.3 3.5-2.1 10.6-2.2 14.2 0z"/></svg>