<?xml version="1.0" encoding="UTF-8"?>
<svg version="1.1" viewBox="0 0 525 78" xmlns="http://www.w3.org/2000/svg" xmlns:xlink="http://www.w3.org/1999/xlink">
<defs>
<linearGradient id="b" y1="49.223%" y2="50.777%">
<stop stop-color="#C07AB9" offset="0"/>
<stop stop-color="#5961F9" offset="1"/>
</linearGradient>
<path id="a" d="m472.69 172.61v-21.841c3.0762 3.1217 6.5625 4.6826 10.459 4.6826 4.5117 0 8.2487-1.652 11.211-4.9561 2.985-3.3268 4.4775-7.4854 4.4775-12.476 0-5.1042-1.5039-9.3311-4.5117-12.681-2.9622-3.3724-6.7334-5.0586-11.313-5.0586-3.8509 0-7.2917 1.5153-10.322 4.5459v-3.623h-7.6904v51.406h7.6904zm9.0234-24.028c-2.8255 0-5.1042-0.99121-6.8359-2.9736-1.7546-2.028-2.6318-4.6029-2.6318-7.7246 0-3.1901 0.87728-5.765 2.6318-7.7246 1.7546-1.9596 4.0446-2.9395 6.8701-2.9395 2.666 0 4.8763 1.014 6.6309 3.042 1.7318 2.0052 2.5977 4.6029 2.5977 7.793 0 3.0078-0.88867 5.5143-2.666 7.5195-1.7318 2.0052-3.9307 3.0078-6.5967 3.0078zm46.889 6.8701c5.0358 0 9.2855-1.6748 12.749-5.0244 3.4408-3.3724 5.1611-7.5537 5.1611-12.544 0-4.9447-1.709-9.1146-5.127-12.51-3.4635-3.3952-7.679-5.0928-12.646-5.0928-4.9447 0-9.1374 1.6862-12.578 5.0586-3.4408 3.3724-5.1611 7.4626-5.1611 12.271 0 5.1042 1.6862 9.3424 5.0586 12.715 3.3724 3.418 7.5537 5.127 12.544 5.127zm0.13672-6.8701c-2.985 0-5.389-0.97982-7.2119-2.9395-1.7773-1.9368-2.666-4.5687-2.666-7.8955 0-3.099 0.91146-5.6283 2.7344-7.5879 1.8229-1.9596 4.2041-2.9395 7.1436-2.9395 2.985 0 5.389 0.97982 7.2119 2.9395 1.8001 1.9368 2.7002 4.5231 2.7002 7.7588s-0.90006 5.8219-2.7002 7.7588c-1.8001 1.9368-4.2041 2.9053-7.2119 2.9053zm45.727 6.8701c4.0104 0 7.3145-1.1279 9.9121-3.3838 1.5723-1.39 2.6774-2.9508 3.3154-4.6826 0.66081-1.9368 0.99121-4.2383 0.99121-6.9043v-19.277h-7.6904v19.106c0 5.5143-2.1761 8.2715-6.5283 8.2715-4.3522 0-6.5283-2.7572-6.5283-8.2715v-19.106h-7.6904v19.277c0 3.0534 0.31901 5.3548 0.95703 6.9043 0.66081 1.7318 1.7887 3.2926 3.3838 4.6826 2.5977 2.2559 5.8903 3.3838 9.8779 3.3838zm37.216-0.95703v-17.261c0-6.3346 2.0964-9.502 6.2891-9.502 1.39 0 2.8141 0.52409 4.2725 1.5723l3.5205-7.041c-2.2103-1.3216-4.3294-1.9824-6.3574-1.9824-1.5267 0-2.8483 0.28483-3.9648 0.85449-1.0938 0.54688-2.347 1.5609-3.7598 3.042v-2.9736h-7.6904v33.291h7.6904zm40.019 0.95703c3.1217 0 6.2435-0.80892 9.3652-2.4268v-10.151c-1.8457 2.2331-3.4521 3.737-4.8193 4.5117-1.4128 0.79753-3.042 1.1963-4.8877 1.1963-2.8939 0-5.2751-1.0026-7.1436-3.0078-1.8457-2.0052-2.7686-4.5687-2.7686-7.6904 0-3.0534 0.95703-5.5941 2.8711-7.6221 1.9141-2.028 4.318-3.042 7.2119-3.042 1.8457 0 3.4521 0.41016 4.8193 1.2305 1.39 0.79753 2.9622 2.2673 4.7168 4.4092v-10.22c-2.9167-1.5723-6.0156-2.3584-9.2969-2.3584-5.1042 0-9.4108 1.709-12.92 5.127-3.5091 3.418-5.2637 7.6107-5.2637 12.578s1.7318 9.126 5.1953 12.476c3.4635 3.3268 7.7702 4.9902 12.92 4.9902zm37.319 0c1.7318 0 3.3382-0.18229 4.8193-0.54688 1.4811-0.36458 2.8597-0.93994 4.1357-1.7261s2.4723-1.7887 3.5889-3.0078c1.1165-1.2191 2.1761-2.6831 3.1787-4.3921l-6.4941-3.623c-1.5723 2.4609-2.9736 4.1471-4.2041 5.0586-1.2533 0.91146-2.8369 1.3672-4.751 1.3672-2.4609 0-4.4775-0.79753-6.0498-2.3926-1.5723-1.6178-2.4609-3.7939-2.666-6.5283h23.857l0.03418-1.8115c0-5.4915-1.4128-9.7868-4.2383-12.886-2.8483-3.1217-6.722-4.6826-11.621-4.6826-4.8535 0-8.75 1.6064-11.689 4.8193-2.9167 3.2585-4.375 7.5195-4.375 12.783 0 5.3092 1.5039 9.5703 4.5117 12.783 3.0078 3.1901 6.9954 4.7852 11.963 4.7852zm7.5195-22.08h-15.449c0.25065-0.95703 0.61524-1.8115 1.0938-2.5635 0.47852-0.75195 1.0539-1.3957 1.7261-1.9312 0.6722-0.53548 1.4185-0.94564 2.2388-1.2305 0.82031-0.28483 1.6976-0.42725 2.6318-0.42725 4.1016 0 6.6878 2.0508 7.7588 6.1523zm29.628 21.123v-16.064c0-4.1471 0.52409-7.0524 1.5723-8.7158 1.071-1.6862 2.8825-2.5293 5.4346-2.5293 2.347 0 3.9648 0.63802 4.8535 1.9141 0.91146 1.2533 1.3672 3.5205 1.3672 6.8018v18.594h7.7246v-20.405c0-4.694-0.93424-8.0778-2.8027-10.151-2.1647-2.4382-5.1839-3.6572-9.0576-3.6572-3.3724 0-6.403 1.333-9.0918 3.999v-3.0762h-7.7246v33.291h7.7246zm44.189 0v-26.113h5.9814v-7.1777h-5.9814v-12.202h-7.6904v12.202h-3.2812v7.1777h3.2812v26.113h7.6904zm31.747 0.95703c3.6458 0 7.0524-1.4811 10.22-4.4434v3.4863h7.7246v-33.291h-7.7246v3.8623c-3.0762-3.1901-6.5511-4.7852-10.425-4.7852-4.4889 0-8.2259 1.6634-11.211 4.9902s-4.4775 7.4854-4.4775 12.476c0 5.0814 1.4925 9.3197 4.4775 12.715 3.0078 3.3268 6.8132 4.9902 11.416 4.9902zm1.1621-6.8701c-2.666 0-4.8763-1.014-6.6309-3.042-1.709-2.0052-2.5635-4.6029-2.5635-7.793 0-2.985 0.87728-5.4915 2.6318-7.5195 1.7773-2.0052 3.9876-3.0078 6.6309-3.0078 2.8027 0 5.0814 0.99121 6.8359 2.9736 1.7546 2.028 2.6318 4.6029 2.6318 7.7246 0 3.1217-0.87728 5.6966-2.6318 7.7246-1.7546 1.9596-4.056 2.9395-6.9043 2.9395zm48.085 24.097c5.2637 0 9.3994-1.7318 12.407-5.1953 1.5951-1.8001 2.666-3.9534 3.2129-6.46 0.18229-0.91146 0.32471-1.9653 0.42725-3.1616s0.15381-2.5806 0.15381-4.1528v-32.505h-7.6904v3.7598c-2.7799-3.1217-6.2663-4.6826-10.459-4.6826-4.7852 0-8.6361 1.8001-11.553 5.4004-2.7116 3.3952-4.0674 7.5195-4.0674 12.373 0 4.9902 1.4583 9.1488 4.375 12.476 2.8939 3.2812 6.6081 4.9219 11.143 4.9219 3.9876 0 7.5081-1.5609 10.562-4.6826v4.6484c0 6.9043-2.8141 10.356-8.4424 10.356-3.0534 0-5.3776-1.0368-6.9727-3.1104-0.68359-0.88867-1.1735-2.1533-1.4697-3.7939h-7.7246c0.45573 4.3522 2.1647 7.7588 5.127 10.22 2.8711 2.3926 6.5283 3.5889 10.972 3.5889zm-0.5127-24.097c-2.9395 0-5.2409-1.0596-6.9043-3.1787-1.5267-1.9368-2.29-4.4206-2.29-7.4512 0-3.0762 0.76335-5.5827 2.29-7.5195 1.6862-2.1647 3.9876-3.2471 6.9043-3.2471 2.7344 0 4.9788 0.99121 6.7334 2.9736 1.7318 1.9368 2.5977 4.5231 2.5977 7.7588 0 3.0306-0.78613 5.5143-2.3584 7.4512-1.709 2.1419-4.0332 3.2129-6.9727 3.2129zm37.968 6.8701c1.3216 0 2.4382-0.45573 3.3496-1.3672 0.93424-0.93424 1.4014-2.0622 1.4014-3.3838 0-1.2988-0.46712-2.4154-1.4014-3.3496-0.93424-0.93424-2.0508-1.4014-3.3496-1.4014s-2.4154 0.46712-3.3496 1.4014c-0.93424 0.93424-1.4014 2.0394-1.4014 3.3154 0 1.3672 0.45573 2.5065 1.3672 3.418 0.91146 0.91146 2.0394 1.3672 3.3838 1.3672zm36.157 0c1.7318 0 3.3382-0.18229 4.8193-0.54688 1.4811-0.36458 2.8597-0.93994 4.1357-1.7261s2.4723-1.7887 3.5889-3.0078c1.1165-1.2191 2.1761-2.6831 3.1787-4.3921l-6.4941-3.623c-1.5723 2.4609-2.9736 4.1471-4.2041 5.0586-1.2533 0.91146-2.8369 1.3672-4.751 1.3672-2.4609 0-4.4775-0.79753-6.0498-2.3926-1.5723-1.6178-2.4609-3.7939-2.666-6.5283h23.857l0.03418-1.8115c0-5.4915-1.4128-9.7868-4.2383-12.886-2.8483-3.1217-6.722-4.6826-11.621-4.6826-4.8535 0-8.75 1.6064-11.689 4.8193-2.9167 3.2585-4.375 7.5195-4.375 12.783 0 5.3092 1.5039 9.5703 4.5117 12.783 3.0078 3.1901 6.9954 4.7852 11.963 4.7852zm7.5195-22.08h-15.449c0.25065-0.95703 0.61524-1.8115 1.0938-2.5635 0.47852-0.75195 1.0539-1.3957 1.7261-1.9312 0.6722-0.53548 1.4185-0.94564 2.2388-1.2305 0.82031-0.28483 1.6976-0.42725 2.6318-0.42725 4.1016 0 6.6878 2.0508 7.7588 6.1523zm31.508 22.08c3.2585 0 6.0384-1.0254 8.3398-3.0762 2.3698-2.1647 3.5547-4.8535 3.5547-8.0664 0-2.5065-0.70638-4.5003-2.1191-5.9814-1.4128-1.4811-4.1585-3.099-8.2373-4.8535-2.9622-1.2533-4.4434-2.5179-4.4434-3.7939 0-0.72917 0.25065-1.3273 0.75195-1.7944 0.5013-0.46712 1.1051-0.70068 1.8115-0.70068 1.4811 0 2.723 1.0254 3.7256 3.0762l6.3574-3.3838c-2.0736-4.3978-5.2409-6.5967-9.502-6.5967-2.8939 0-5.3548 0.94564-7.3828 2.8369-1.9824 1.8913-2.9736 4.2839-2.9736 7.1777 0 2.1875 0.58105 3.9762 1.7432 5.3662 0.91146 1.0938 2.4837 2.1875 4.7168 3.2812 0.79753 0.38737 1.5837 0.76335 2.3584 1.1279s1.5495 0.74056 2.3242 1.1279c2.0052 1.1849 3.0078 2.4609 3.0078 3.8281 0 2.3698-1.2988 3.5547-3.8965 3.5547-1.2988 0-2.4154-0.43294-3.3496-1.2988-0.47852-0.43294-1.1735-1.4469-2.085-3.042l-6.5625 3.042c2.3242 5.446 6.2777 8.1689 11.86 8.1689z"/>

<filter id="c" x="-2%" y="-15.7%" width="103.5%" height="128.3%">
<feGaussianBlur in="SourceAlpha" result="shadowBlurInner1" stdDeviation="1.5"/>
<feOffset dx="0" dy="1" in="shadowBlurInner1" result="shadowOffsetInner1"/>
<feComposite in="shadowOffsetInner1" in2="SourceAlpha" k2="-1" k3="1" operator="arithmetic" result="shadowInnerInner1"/>
<feColorMatrix in="shadowInnerInner1" values="0 0 0 0 0   0 0 0 0 0   0 0 0 0 0  0 0 0 0.2 0"/>
</filter>
</defs>
<g fill="none" fill-rule="evenodd">
<g transform="translate(-457 -101)" fill-rule="nonzero">
<use fill="black" filter="url(#d)" xlink:href="#a"/>
<use fill="url(#b)" xlink:href="#a"/>
<use fill="black" filter="url(#c)" xlink:href="#a"/>
</g>
</g>
</svg>
